<svg width="18" height="15" viewBox="0 0 18 15" fill="none" xmlns="http://www.w3.org/2000/svg">
<path d="M17.5852 12.1555C18.0275 9.73447 18.0553 7.25591 17.6674 4.8256L17.6034 4.42416C17.4362 3.37679 16.5327 2.60612 15.4721 2.60612L6.75926 2.60612C6.72648 2.60612 6.69991 2.57955 6.69991 2.54677C6.69991 1.55444 5.89547 0.75 4.90314 0.75H2.61158C1.50838 0.75 0.579148 1.57432 0.447615 2.66965L0.175129 4.93877C-0.108553 7.30113 -0.0353391 9.69272 0.392315 12.0333C0.566836 12.9885 1.36568 13.7045 2.33419 13.7738L3.8482 13.8821C7.27829 14.1275 10.7215 14.1275 14.1516 13.8821L15.7895 13.7649C16.6851 13.7008 17.4238 13.0387 17.5852 12.1555Z" fill="black"/>
</svg>
