<svg width="17" height="20" viewBox="0 0 17 20" fill="none" xmlns="http://www.w3.org/2000/svg">
<path fill-rule="evenodd" clip-rule="evenodd" d="M8 0.25C7.58579 0.25 7.25 0.585786 7.25 1V5C7.25 5.00013 7.25 4.99987 7.25 5L7.25 12.2595C6.50878 11.6299 5.54875 11.25 4.5 11.25C2.15279 11.25 0.25 13.1528 0.25 15.5C0.25 17.8472 2.15279 19.75 4.5 19.75C6.84721 19.75 8.75 17.8472 8.75 15.5C8.75 15.3812 8.74512 15.2635 8.73556 15.1472C8.74503 15.0996 8.75 15.0504 8.75 15L8.75 5.75H14C15.5188 5.75 16.75 4.51878 16.75 3C16.75 1.48122 15.5188 0.25 14 0.25H8ZM8.75 4.25H14C14.6904 4.25 15.25 3.69036 15.25 3C15.25 2.30964 14.6904 1.75 14 1.75H8.75V4.25ZM4.5 12.75C2.98122 12.75 1.75 13.9812 1.75 15.5C1.75 17.0188 2.98122 18.25 4.5 18.25C6.01878 18.25 7.25 17.0188 7.25 15.5C7.25 13.9812 6.01878 12.75 4.5 12.75Z" fill="white"/>
</svg>
