<svg width="20" height="18" viewBox="0 0 20 18" fill="none" xmlns="http://www.w3.org/2000/svg">
<path d="M12.6096 1.84566C12.5115 1.06104 11.5846 0.69526 10.9771 1.20148L5.95804 5.38406C5.86818 5.45894 5.75492 5.49995 5.63795 5.49995H1.75C1.05964 5.49995 0.5 6.0596 0.5 6.74995V11.25C0.5 11.9403 1.05964 12.5 1.75 12.5H5.63795C5.75492 12.5 5.86818 12.541 5.95804 12.6158L10.9771 16.7984C11.5846 17.3046 12.5115 16.9389 12.6096 16.1542L12.7054 15.3877C13.2357 11.1457 13.2357 6.85418 12.7054 2.61216L12.6096 1.84566Z" fill="black"/>
<path d="M17.9082 2.94572C18.3014 2.81566 18.7257 3.02902 18.8557 3.42228C19.4362 5.17725 19.75 7.05271 19.75 8.99996C19.75 10.9472 19.4362 12.8227 18.8557 14.5776C18.7257 14.9709 18.3014 15.1843 17.9082 15.0542C17.5149 14.9241 17.3015 14.4999 17.4316 14.1066C17.9624 12.5017 18.25 10.7852 18.25 8.99996C18.25 7.21475 17.9624 5.49822 17.4316 3.89329C17.3015 3.50003 17.5149 3.07579 17.9082 2.94572Z" fill="black"/>
<path d="M16.0323 4.94765C15.8894 4.55885 15.4584 4.35947 15.0696 4.50232C14.6808 4.64518 14.4815 5.07617 14.6243 5.46497C15.0288 6.5659 15.25 7.75626 15.25 8.99996C15.25 10.0316 15.0978 11.0263 14.8152 11.9636C14.7995 12.0158 14.7833 12.0679 14.7668 12.1198C14.7222 12.2595 14.6747 12.3979 14.6243 12.535C14.4815 12.9238 14.6808 13.3547 15.0696 13.4976C15.4584 13.6404 15.8894 13.4411 16.0323 13.0523C16.0901 12.895 16.1446 12.7362 16.1958 12.5758C16.2148 12.5163 16.2333 12.4565 16.2514 12.3966C16.5758 11.3204 16.75 10.1798 16.75 8.99996C16.75 7.57716 16.4968 6.21182 16.0323 4.94765Z" fill="black"/>
</svg>
