<svg width="20" height="16" viewBox="0 0 20 16" fill="none" xmlns="http://www.w3.org/2000/svg">
<path fill-rule="evenodd" clip-rule="evenodd" d="M10.1387 0.574801C11.1912 -0.302298 12.7973 0.331466 12.9672 1.69095C13.4909 5.88069 13.4909 10.1193 12.9672 14.3091C12.7973 15.6686 11.1912 16.3023 10.1387 15.4252L5.798 11.808C5.75307 11.7705 5.69643 11.75 5.63795 11.75H2C1.0335 11.75 0.25 10.9665 0.25 10V6.00001C0.25 5.03351 1.0335 4.25001 2 4.25001H5.63795C5.69643 4.25001 5.75307 4.22951 5.798 4.19207L10.1387 0.574801ZM11.4788 1.87701C11.456 1.69446 11.2403 1.60936 11.099 1.72713L6.75827 5.3444C6.44377 5.60648 6.04734 5.75001 5.63795 5.75001H2C1.86193 5.75001 1.75 5.86194 1.75 6.00001V10C1.75 10.1381 1.86193 10.25 2 10.25H5.63795C6.04734 10.25 6.44377 10.3935 6.75827 10.6556L11.099 14.2729C11.2403 14.3907 11.456 14.3056 11.4788 14.123C11.9871 10.0568 11.9871 5.94319 11.4788 1.87701Z" fill="black"/>
<path d="M17.9082 1.94578C18.3014 1.81572 18.7257 2.02908 18.8557 2.42234C19.4362 4.17731 19.75 6.05277 19.75 8.00002C19.75 9.94728 19.4362 11.8227 18.8557 13.5777C18.7257 13.971 18.3014 14.1843 17.9082 14.0543C17.5149 13.9242 17.3015 13.5 17.4316 13.1067C17.9624 11.5018 18.25 9.78523 18.25 8.00002C18.25 6.21482 17.9624 4.49828 17.4316 2.89336C17.3015 2.50009 17.5149 2.07585 17.9082 1.94578Z" fill="black"/>
<path d="M16.0323 3.94771C15.8894 3.55891 15.4584 3.35953 15.0696 3.50238C14.6808 3.64524 14.4815 4.07623 14.6243 4.46503C15.0288 5.56596 15.25 6.75632 15.25 8.00002C15.25 9.03163 15.0978 10.0264 14.8152 10.9637C14.7995 11.0159 14.7833 11.068 14.7668 11.1198C14.7222 11.2595 14.6747 11.398 14.6243 11.535C14.4815 11.9238 14.6808 12.3548 15.0696 12.4977C15.4584 12.6405 15.8894 12.4411 16.0323 12.0523C16.0901 11.8951 16.1446 11.7362 16.1958 11.5759C16.2148 11.5163 16.2333 11.4566 16.2514 11.3967C16.5758 10.3204 16.75 9.17989 16.75 8.00002C16.75 6.57722 16.4968 5.21188 16.0323 3.94771Z" fill="black"/>
</svg>
