<svg width="20" height="20" viewBox="0 0 20 20" fill="none" xmlns="http://www.w3.org/2000/svg">
<path d="M10.6365 9.40299C10.5697 9.29826 10.4837 9.20254 10.3783 9.12102C8.59656 7.74236 6.60696 6.65569 4.48402 5.9017L4.09564 5.76376C3.37094 5.50638 2.60487 5.9967 2.50668 6.7454C2.22597 8.88582 2.22597 11.1142 2.50667 13.2546C2.60487 14.0033 3.37094 14.4936 4.09564 14.2362L4.48402 14.0983C6.60696 13.3443 8.59656 12.2576 10.3783 10.879C10.4837 10.7974 10.5697 10.7017 10.6365 10.597C10.6574 11.4895 10.7252 12.3794 10.84 13.2546C10.9382 14.0033 11.7043 14.4936 12.429 14.2362L12.8174 14.0983C14.9403 13.3443 16.9299 12.2576 18.7117 10.879C19.2867 10.434 19.2867 9.56594 18.7117 9.12102C16.9299 7.74236 14.9403 6.65569 12.8174 5.9017L12.429 5.76376C11.7043 5.50638 10.9382 5.9967 10.84 6.7454C10.7252 7.62057 10.6574 8.51044 10.6365 9.40299Z" fill="white"/>
</svg>
