<svg width="20" height="20" viewBox="0 0 20 20" fill="none" xmlns="http://www.w3.org/2000/svg">
<path d="M13.7248 4.55806C13.4807 4.80214 13.4807 5.19786 13.7248 5.44194L14.3245 6.04167H11.1474C10.5884 6.04167 10.0786 6.36119 9.83491 6.86427L9.6596 7.2262C9.61515 7.31797 9.61515 7.42505 9.6596 7.51682L10.1337 8.49556C10.1944 8.62091 10.373 8.62091 10.4337 8.49556L10.9599 7.40918C10.9947 7.33731 11.0675 7.29167 11.1474 7.29167H14.3245L13.7248 7.89139C13.4807 8.13547 13.4807 8.5312 13.7248 8.77528C13.9689 9.01935 14.3646 9.01935 14.6087 8.77528L16.2754 7.10861C16.5194 6.86453 16.5194 6.4688 16.2754 6.22472L14.6087 4.55806C14.3646 4.31398 13.9689 4.31398 13.7248 4.55806Z" fill="white"/>
<path d="M8.3614 12.7738C8.40585 12.682 8.40585 12.575 8.3614 12.4832L7.88732 11.5044C7.8266 11.3791 7.64804 11.3791 7.58733 11.5044L7.06111 12.5908C7.0263 12.6627 6.95347 12.7083 6.87362 12.7083H4.16675C3.82157 12.7083 3.54175 12.9882 3.54175 13.3333C3.54175 13.6785 3.82157 13.9583 4.16675 13.9583H6.87362C7.43261 13.9583 7.94241 13.6388 8.18609 13.1357L8.3614 12.7738Z" fill="white"/>
<path d="M13.7248 15.4419C13.4807 15.1979 13.4807 14.8021 13.7248 14.5581L14.3245 13.9583H11.1474C10.5884 13.9583 10.0786 13.6388 9.83491 13.1357L7.06111 7.40918C7.0263 7.33731 6.95347 7.29167 6.87362 7.29167H4.16675C3.82157 7.29167 3.54175 7.01184 3.54175 6.66667C3.54175 6.32149 3.82157 6.04167 4.16675 6.04167H6.87362C7.43261 6.04167 7.94241 6.36119 8.18609 6.86427L10.9599 12.5908C10.9947 12.6627 11.0675 12.7083 11.1474 12.7083H14.3245L13.7248 12.1086C13.4807 11.8645 13.4807 11.4688 13.7248 11.2247C13.9689 10.9806 14.3646 10.9806 14.6087 11.2247L16.2754 12.8914C16.5194 13.1355 16.5194 13.5312 16.2754 13.7753L14.6087 15.4419C14.3646 15.686 13.9689 15.686 13.7248 15.4419Z" fill="white"/>
</svg>
