<svg width="20" height="20" viewBox="0 0 20 20" fill="none" xmlns="http://www.w3.org/2000/svg">
<path d="M1.28843 10.879C0.713427 10.434 0.713426 9.56594 1.28843 9.12102C3.0702 7.74236 5.05979 6.65569 7.18274 5.9017L7.57111 5.76376C8.29581 5.50638 9.06189 5.9967 9.16008 6.7454C9.27485 7.62057 9.3427 8.51044 9.36362 9.40299C9.43036 9.29827 9.51641 9.20254 9.62177 9.12102C11.4035 7.74236 13.3931 6.65569 15.5161 5.9017L15.9044 5.76376C16.6291 5.50638 17.3952 5.9967 17.4934 6.7454C17.7741 8.88582 17.7741 11.1142 17.4934 13.2546C17.3952 14.0033 16.6291 14.4936 15.9044 14.2362L15.5161 14.0983C13.3931 13.3443 11.4035 12.2576 9.62177 10.879C9.51641 10.7974 9.43036 10.7017 9.36362 10.597C9.3427 11.4895 9.27485 12.3794 9.16008 13.2546C9.06189 14.0033 8.29581 14.4936 7.57111 14.2362L7.18273 14.0983C5.05979 13.3443 3.0702 12.2576 1.28843 10.879Z" fill="white"/>
</svg>
