<svg width="12" height="14" viewBox="0 0 12 14" fill="none" xmlns="http://www.w3.org/2000/svg">
<path d="M11.2757 0.470012C11.7109 0.630349 12 1.04498 12 1.50878L12 12.4913C12 12.9551 11.7109 13.3697 11.2757 13.53C10.4523 13.8334 9.54772 13.8334 8.72432 13.53C8.28912 13.3697 8 12.9551 8 12.4913L8 1.50878C8 1.04498 8.28912 0.630349 8.72432 0.470011C9.54772 0.166653 10.4523 0.166653 11.2757 0.470012Z" fill="black"/>
<path d="M3.27568 0.470012C3.71088 0.630349 4 1.04498 4 1.50878L4 12.4913C4 12.9551 3.71088 13.3697 3.27568 13.53C2.45228 13.8334 1.54772 13.8334 0.724319 13.53C0.289117 13.3697 -2.31695e-08 12.9551 0 12.4913L5.4864e-07 1.50878C5.71809e-07 1.04498 0.289117 0.630349 0.72432 0.470011C1.54772 0.166653 2.45228 0.166653 3.27568 0.470012Z" fill="black"/>
</svg>
