<svg width="18" height="18" viewBox="0 0 18 18" fill="none" xmlns="http://www.w3.org/2000/svg">
<path d="M16.2668 0.958245C11.4337 0.485598 6.56607 0.485598 1.73299 0.958245C1.29827 1.00076 0.932196 1.2989 0.798432 1.71096C0.265106 3.35388 0.265106 5.14606 0.798432 6.78898C0.932196 7.20104 1.29826 7.49918 1.73298 7.54169C6.56607 8.01434 11.4337 8.01434 16.2668 7.54169C16.7015 7.49918 17.0676 7.20104 17.2014 6.78898C17.7347 5.14606 17.7347 3.35388 17.2014 1.71096C17.0676 1.2989 16.7015 1.00076 16.2668 0.958245Z" fill="black"/>
<path d="M16.2668 10.4582C11.4337 9.9856 6.56607 9.9856 1.73299 10.4582C1.29827 10.5008 0.932196 10.7989 0.798432 11.211C0.265106 12.8539 0.265106 14.6461 0.798432 16.289C0.932196 16.701 1.29826 16.9992 1.73298 17.0417C6.56607 17.5143 11.4337 17.5143 16.2668 17.0417C16.7015 16.9992 17.0676 16.701 17.2014 16.289C17.7347 14.6461 17.7347 12.8539 17.2014 11.211C17.0676 10.7989 16.7015 10.5008 16.2668 10.4582Z" fill="black"/>
</svg>
